# xmcd CD database file
#
# Track frame offsets:
#	150
#	18389
#	43287
#	77882
#	98202
#	117779
#	140562
#	168195
#	186429
#	210354
#	238407
#	253441
#
# Disc length: 3688 seconds
#
# Revision: 0
# Processed by: cddbd v1.5.2PL0 Copyright (c) Steve Scherf et al.
# Submitted via: CDex 1.70beta2
#
DISCID=ae0e660c
DTITLE=The Pete Cook Septet - That's Cooking
DYEAR=2000
DGENRE=Jazz
TTITLE0=Disc Jockey Jump
TTITLE1=Bock to Bock
TTITLE2=I'll Remember April
TTITLE3=Chelsea Bridge
TTITLE4=Marionette
TTITLE5=Love for Sale
TTITLE6=317 East 32nd Street
TTITLE7=You Stepped out of a Dream
TTITLE8=Once We Were Young
TTITLE9=The Touch of Your Lips
TTITLE10=Bernie's Tune
TTITLE11=Balcony Rock
EXTD=YEAR: 2000
EXTT0=
EXTT1=
EXTT2=
EXTT3=
EXTT4=
EXTT5=
EXTT6=
EXTT7=
EXTT8=
EXTT9=
EXTT10=
EXTT11=
PLAYORDER=
